# AST/ASF file generated using VICON BodyLanguage
# -----------------------------------------------
:version 1.10
:name VICON
:units
  mass 1.0
  length 0.45
  angle deg
:documentation
   .ast/.asf automatically generated from VICON data using
   VICON BodyBuilder and BodyLanguage model FoxedUp or BRILLIANT.MOD
:root
   order TX TY TZ RX RY RZ
   axis XYZ
   position 0 0 0  
   orientation 0 0 0 
:bonedata
  begin
     id 1 
     name lhipjoint
     direction 0.558404 -0.748506 0.357664 
     length 2.4234 
     axis 0 0 0  XYZ
  end
  begin
     id 2 
     name lfemur
     direction 0.34202 -0.939693 0  
     length 7.14567  
     axis 0 0 20  XYZ
    dof rx ry rz
    limits (-160.0 20.0)
           (-70.0 70.0)
           (-60.0 70.0)
  end
  begin
     id 3 
     name ltibia
     direction 0.34202 -0.939693 0   
     length 8.13956   
     axis 0 0 20   XYZ
    dof rx
    limits (-10.0 170.0)
  end
  begin
     id 4 
     name lfoot
     direction 0.0791314 -0.217412 0.972867   
     length 2.00134   
     axis -90 7.62852e-016 20   XYZ
    dof rx rz
    limits (-45.0 90.0)
           (-70.0 20.0)
  end
  begin
     id 5 
     name ltoes
     direction 1.53547e-011 -4.21922e-011 1   
     length 1.00735   
     axis -90 7.62852e-016 20   XYZ
    dof rx
    limits (-90.0 20.0)
  end
  begin
     id 6 
     name rhipjoint
     direction -0.496392 -0.78327 0.374276   
     length 2.31584  
     axis 0 0 0  XYZ 
  end
  begin
     id 7 
     name rfemur
     direction -0.34202 -0.939693 0   
     length 7.47417   
     axis 0 0 -20   XYZ
    dof rx ry rz
    limits (-160.0 20.0)
           (-70.0 70.0)
           (-70.0 60.0)
  end
  begin
     id 8 
     name rtibia
     direction -0.34202 -0.939693 0   
     length 7.69071   
     axis 0 0 -20   XYZ
    dof rx
    limits (-10.0 170.0)
 end
 begin
     id 9 
     name rfoot
     direction -0.103069 -0.28318 0.953512   
     length 2.16135  
     axis -90 -7.62852e-016 -20   XYZ
    dof rx rz
    limits (-45.0 90.0)
           (-20.0 70.0)
  end
  begin
     id 10 
     name rtoes
     direction -1.53581e-011 -4.21904e-011 1   
     length 1.07867   
     axis -90 -7.62852e-016 -20   XYZ
    dof rx
    limits (-90.0 20.0)
  end
  begin
     id 11 
     name lowerback
     direction -0.0258961 0.994776 -0.0987407   
     length 2.19412   
     axis 0 0 0   XYZ
    dof rx ry rz
    limits (-20.0 45.0)
           (-30.0 30.0)
           (-30.0 30.0)
  end
  begin
     id 12 
     name upperback
     direction 0.0402454 0.999185 0.00320666   
     length 2.18445   
     axis 0 0 0   XYZ
    dof rx ry rz
    limits (-20.0 45.0)
           (-30.0 30.0)
           (-30.0 30.0)
  end
  begin
     id 13 
     name thorax
     direction 0.0519376 0.997415 0.0496558   
     length 2.21487   
     axis 0 0 0   XYZ
    dof rx ry rz
    limits (-20.0 45.0)
           (-30.0 30.0)
           (-30.0 30.0)
  end
  begin
     id 14 
     name lowerneck
     direction -0.0921276 0.983211 0.157506   
     length 1.61201   
     axis 0 0 0   XYZ
    dof rx ry rz
    limits (-20.0 45.0)
           (-30.0 30.0)
           (-30.0 30.0)
  end
  begin
     id 15 
     name upperneck
     direction 0.0820814 0.98162 -0.172292   
     length 1.65275   
     axis 0 0 0   XYZ
    dof rx ry rz
    limits (-20.0 45.0)
           (-30.0 30.0)
           (-30.0 30.0)
  end
  begin
     id 16
     name head
     direction 0.0336554 0.996413 -0.0776455  
     length 1.66415  
     axis 0 0 0   XYZ
    dof rx ry rz
    limits (-20.0 45.0)
           (-30.0 30.0)
           (-30.0 30.0)
  end
  begin
     id 17 
     name lclavicle
     direction 0.94696 0.284418 -0.149576  
     length 3.41447  
     axis 0 0 0   XYZ
    dof ry rz
    limits (-20.0 10.0)
           (0.0 20.0)
  end
  begin
     id 18 
     name lhumerus
     direction 1 -0.000130264 -9.81312e-005   
     length 5.19964   
     axis 180 -30 -90   XYZ
    dof rx ry rz
    limits (-60.0 90.0)
           (-90.0 90.0)
           (-90.0 90.0)
  end
  begin
     id 19
     name lradius
     direction 1 -4.48961e-011 1.43854e-026   
     length 3.32189   
     axis 180 -30 -90   XYZ
    dof rx
    limits (-10.0 170.0)
  end
  begin
     id 20
     name lwrist
     direction 1 -4.48958e-011 3.1502e-026   
     length 1.66095   
     axis -1.97692e-014 90 90   XYZ
    dof ry
    limits (-180.0 0.0)
 end
  begin
     id 21 
     name lhand
     direction 1 -4.48927e-011 6.3004e-026   
     length 0.645616   
     axis -4.02019e-014 90 90   XYZ
    dof rx rz
    limits (-90.0 90.0)
           (-45.0 45.0)
  end
  begin
     id 22 
     name lfingers
     direction 1 -4.4904e-011 1.26008e-025   
     length 0.520512   
     axis -8.04039e-014 90 90   XYZ
    dof rx
    limits (0.0 90.0)
  end
  begin
     id 23
     name lthumb
     direction 0.707107 -6.34947e-011 0.707107   
     length 0.747354   
     axis -90 45 2.85299e-015   XYZ
    dof rx rz
    limits (-45.0 45.0)
           (-45.0 45.0)
  end
  begin
     id 24 
     name rclavicle
     direction -0.909391 0.383475 -0.161107   
     length 3.25176  
     axis 0 0 0   XYZ 
    dof ry rz
    limits (-10.0 20.0)
           (-20.0 0.0)
  end
  begin
     id 25 
     name rhumerus
     direction -1 -4.48965e-011 -1.81384e-027  
     length 5.6595   
     axis 180 30 90   XYZ
    dof rx ry rz
    limits (-90.0 60.0)
           (-90.0 90.0)
           (-90.0 90.0)
  end
  begin
     id 26 
     name rradius
     direction -1 -4.48996e-011 -8.09397e-027   
     length 3.37604   
     axis 180 30 90   XYZ
    dof rx
    limits (-10.0 170.0)
  end
  begin
     id 27 
     name rwrist
     direction -1 -4.48927e-011 -1.56669e-026   
     length 1.68802   
     axis 1.21142e-014 -90 -90   XYZ
    dof ry
    limits (-180.0 0.0)
  end
  begin
     id 28
     name rhand
     direction -1 -4.48912e-011 -3.13339e-026   
     length 0.824702   
     axis 1.99937e-014 -90 -90   XYZ
    dof rx rz
    limits (-90.0 90.0)
           (-45.0 45.0)
  end
  begin
     id 29
     name rfingers
     direction -1 -4.49011e-011 -6.26677e-026   
     length 0.664896   
     axis 3.99874e-014 -90 -90   XYZ
    dof rx
    limits (0.0 90.0)
  end
  begin
     id 30
     name rthumb
     direction -0.707107 -6.34931e-011 0.707107   
     length 0.954662   
     axis -90 -45 -2.85299e-015   XYZ
    dof rx rz
    limits (-45.0 45.0)
           (-45.0 45.0)
  end
:hierarchy
  begin
    root lhipjoint rhipjoint lowerback
    lhipjoint lfemur
    lfemur ltibia
    ltibia lfoot
    lfoot ltoes
    rhipjoint rfemur
    rfemur rtibia
    rtibia rfoot
    rfoot rtoes
    lowerback upperback
    upperback thorax
    thorax lowerneck lclavicle rclavicle
    lowerneck upperneck
    upperneck head
    lclavicle lhumerus
    lhumerus lradius
    lradius lwrist
    lwrist lhand lthumb
    lhand lfingers
    rclavicle rhumerus
    rhumerus rradius
    rradius rwrist
    rwrist rhand rthumb
    rhand rfingers
  end

#!OML:ASF F:\VICON\USERDATA\INSTALL\rory3\rory3.ASF
:FULLY-SPECIFIED
:DEGREES
242
root 11.4019 17.3519 9.5664 2.49004 5.22656 2.32084
lowerback 8.3555 0.492053 -5.05565
upperback -1.43431 0.363541 3.92522
thorax -6.28032 0.44541 6.98092
lowerneck -3.3712 -11.2718 -18.5375
upperneck 22.3513 -17.4599 16.0546
head 10.8362 -8.37919 6.70926
rclavicle 1.78409e-014 -4.77083e-014
rhumerus -19.3116 -5.86341 -57.7221
rradius 87.5222
rwrist -21.8844
rhand -19.22 20.3186
rfingers 7.12502
rthumb 7.09275 -9.54253
lclavicle 1.78409e-014 -4.77083e-014
lhumerus -47.5383 35.9351 24.925
lradius 26.2939
lwrist -4.65249
lhand -10.2552 34.442
lfingers 7.12502
lthumb 15.7379 63.8221
rfemur -26.7954 3.14576 7.94244
rtibia 40.0672
rfoot -11.2721 -6.02945
rtoes 20.7745
lfemur -10.7399 -2.72164 -15.1037
ltibia 33.0826
lfoot -20.9204 -4.4809
ltoes -8.55083
243
root 11.4662 17.3587 9.58355 2.4374 5.31618 2.3837
lowerback 8.1069 0.437534 -5.26311
upperback -1.23225 0.271183 3.82272
thorax -5.90946 0.385322 6.9956
lowerneck -2.51892 -11.6903 -18.8043
upperneck 22.1341 -18.2597 16.4729
head 10.8357 -8.78269 6.8096
rclavicle -7.10655e-015 1.59028e-015
rhumerus -19.8988 -5.83496 -58.231
rradius 87.9056
rwrist -21.6303
rhand -19.3889 20.3928
rfingers 7.12502
rthumb 6.92971 -9.47377
lclavicle -7.10655e-015 1.59028e-015
lhumerus -48.5663 34.8134 24.7595
lradius 26.9492
lwrist -3.97842
lhand -11.6011 35.4651
lfingers 7.12502
lthumb 14.4413 64.9426
rfemur -26.4228 3.13394 7.65229
rtibia 39.7374
rfoot -11.2313 -6.15235
rtoes 20.4501
lfemur -10.5767 -2.66371 -15.4172
ltibia 33.0906
lfoot -21.0142 -4.54444
ltoes -8.63866
244
root 11.5275 17.3582 9.59374 2.44832 5.18863 2.44214
lowerback 8.27852 0.522631 -5.42202
upperback -1.34206 0.351929 3.65831
thorax -6.13734 0.43915 6.90292
lowerneck -1.58011 -12.0883 -18.8512
upperneck 22.1675 -19.052 16.6757
head 10.8668 -9.18621 6.80819
rclavicle 1.10325e-014 2.22639e-014
rhumerus -21.0281 -5.77895 -58.7009
rradius 88.3469
rwrist -21.4791
rhand -19.067 20.3396
rfingers 7.12502
rthumb 7.24047 -9.51655
lclavicle 1.10325e-014 2.22639e-014
lhumerus -49.724 33.4348 24.4611
lradius 27.4711
lwrist -3.49769
lhand -11.7888 35.312
lfingers 7.12502
lthumb 14.2606 64.8024
rfemur -26.238 3.34313 7.3583
rtibia 39.4258
rfoot -11.1568 -6.25622
rtoes 20.2441
lfemur -10.4698 -2.98885 -15.7812
ltibia 33.0909
lfoot -21.0801 -3.97632
ltoes -8.71018
245
root 11.5911 17.3605 9.60217 2.53063 4.87358 2.35851
lowerback 7.5564 0.589832 -5.51811
upperback -0.826404 0.460749 3.61542
thorax -5.19715 0.44502 6.88324
lowerneck -1.6658 -12.6269 -18.8827
upperneck 22.2624 -19.9037 16.9205
head 11.141 -9.55057 6.74122
rclavicle -4.57205e-015 2.38542e-014
rhumerus -20.904 -6.07083 -59.3459
rradius 88.3893
rwrist -21.2398
rhand -18.8115 20.3737
rfingers 7.12502
rthumb 7.48711 -9.47376
lclavicle -4.57205e-015 2.38542e-014
lhumerus -50.4475 32.9155 24.7822
lradius 28.1454
lwrist -2.29446
lhand -11.8311 35.8862
lfingers 7.12502
lthumb 14.2198 65.3794
rfemur -26.2413 3.60647 7.21303
rtibia 39.1494
rfoot -11.0417 -6.24696
rtoes 20.2736
lfemur -10.4298 -3.51904 -16.0538
ltibia 33.0852
lfoot -21.1499 -2.98935
ltoes -8.69929
246
root 11.6592 17.3632 9.61475 2.57486 4.82387 2.43007
lowerback 7.62183 0.58614 -5.68109
upperback -1.00252 0.43344 3.5425
thorax -5.41752 0.448611 6.90512
lowerneck -0.739852 -12.952 -19.1711
upperneck 22.6761 -20.5754 16.9006
head 11.3012 -9.9302 6.72218
rclavicle -5.26779e-015 -2.94201e-014
rhumerus -21.8615 -5.77962 -59.8312
rradius 88.3433
rwrist -20.9916
rhand -18.7486 20.4648
rfingers 7.12502
rthumb 7.54784 -9.38052
lclavicle -5.26779e-015 -2.94201e-014
lhumerus -51.6475 30.9696 25.3517
lradius 29.1001
lwrist -0.0886267
lhand -12.4517 37.3086
lfingers 7.12502
lthumb 13.6216 66.8429
rfemur -26.065 3.47174 6.89815
rtibia 38.8892
rfoot -10.9187 -6.115
rtoes 20.1145
lfemur -10.3148 -4.15639 -16.5071
ltibia 33.0717
lfoot -21.2508 -2.24682
ltoes -8.38517
247
root 11.7287 17.3641 9.62081 2.65285 4.7953 2.64196
lowerback 7.54336 0.587567 -5.89221
upperback -0.997901 0.411713 3.40639
thorax -5.36547 0.439719 6.88236
lowerneck 0.7788 -13.2309 -19.4636
upperneck 22.2023 -21.2229 17.2593
head 11.059 -10.322 6.87304
rclavicle -9.19379e-015 -3.97569e-014
rhumerus -22.7786 -5.70189 -60.4025
rradius 88.4288
rwrist -20.7881
rhand -18.7306 20.5122
rfingers 7.12502
rthumb 7.56522 -9.33246
lclavicle -9.19379e-015 -3.97569e-014
lhumerus -52.752 30.2008 25.3791
lradius 29.5054
lwrist 1.33173
lhand -12.9542 37.4979
lfingers 7.12502
lthumb 13.1373 67.0641
rfemur -25.9456 3.19346 6.4267
rtibia 38.6482
rfoot -10.7329 -5.89909
rtoes 19.7779
lfemur -10.2289 -4.71544 -17.1072
ltibia 33.027
lfoot -21.3654 -1.55055
ltoes -8.47335
248
root 11.7922 17.368 9.6309 2.74598 4.63285 2.84382
lowerback 7.44665 0.634044 -6.1744
upperback -0.938447 0.446255 3.28398
thorax -5.25544 0.457118 6.90798
lowerneck 2.72464 -13.5085 -19.6937
upperneck 21.104 -21.9011 17.9009
head 10.5507 -10.7464 7.13874
rclavicle -8.24956e-015 3.10104e-014
rhumerus -23.5382 -5.6495 -61.0625
rradius 88.3846
rwrist -20.6009
rhand -18.8179 20.5619
rfingers 7.12502
rthumb 7.48088 -9.28584
lclavicle -8.24956e-015 3.10104e-014
lhumerus -53.8716 30.0652 25.0724
lradius 29.5382
lwrist 1.84453
lhand -13.0106 37.328
lfingers 7.12502
lthumb 13.083 66.8977
rfemur -25.9176 3.11522 5.98332
rtibia 38.4295
rfoot -10.6238 -5.72821
rtoes 19.886
lfemur -10.1804 -4.92591 -17.6255
ltibia 32.9572
lfoot -21.5119 -1.04643
ltoes -8.91894
249
root 11.8524 17.3701 9.64683 2.82061 4.52457 3.20418
lowerback 7.39083 0.661845 -6.67364
upperback -0.901342 0.433307 3.14024
thorax -5.18714 0.459122 7.04264
lowerneck -1.39047 -14.5599 -20.1581
upperneck 25.8154 -23.188 16.2907
head 13.3542 -11.1375 6.10627
rclavicle -9.14409e-015 7.15625e-015
rhumerus -24.1821 -5.48806 -61.7422
rradius 88.0401
rwrist -20.4091
rhand -19.0155 20.6368
rfingers 7.12502
rthumb 7.29019 -9.21764
lclavicle -9.14409e-015 7.15625e-015
lhumerus -55.0435 29.5885 25.049
lradius 29.7454
lwrist 2.44999
lhand -12.151 36.2751
lfingers 7.12502
lthumb 13.9115 65.7897
rfemur -25.8138 3.0358 5.36814
rtibia 38.2112
rfoot -10.5865 -5.56809
rtoes 19.9901
lfemur -10.1161 -4.97709 -18.2617
ltibia 32.9171
lfoot -21.6536 -0.939768
ltoes -8.63863
250
root 11.9124 17.3695 9.65889 2.80744 4.28056 3.34174
lowerback 7.18957 0.738627 -6.9231
upperback -0.694462 0.523435 3.04161
thorax -4.87176 0.489254 7.06678
lowerneck 1.50067 -14.4987 -19.7162
upperneck 23.567 -23.357 16.9417
head 11.9306 -11.35 6.43995
rclavicle 2.88238e-015 -5.56597e-015
rhumerus -24.676 -5.49315 -62.4442
rradius 87.6374
rwrist -20.1916
rhand -18.9549 20.722
rfingers 7.12502
rthumb 7.34869 -9.13041
lclavicle 2.88238e-015 -5.56597e-015
lhumerus -56.0561 29.4125 25.0134
lradius 29.8572
lwrist 3.50475
lhand -10.8943 35.1486
lfingers 7.12502
lthumb 15.1223 64.5762
rfemur -25.6745 3.14165 5.00128
rtibia 37.9605
rfoot -10.4968 -5.46208
rtoes 19.4756
lfemur -10.007 -4.9502 -18.6691
ltibia 32.978
lfoot -21.8009 -0.789548
ltoes -8.31264
251
root 11.9681 17.3686 9.66425 2.72506 3.96644 3.06387
lowerback 7.15286 0.84541 -6.8225
upperback -0.577264 0.681496 3.09708
thorax -4.75391 0.557174 7.0491
lowerneck 3.52669 -14.6418 -19.4367
upperneck 22.1241 -23.6949 17.2345
head 11.0652 -11.6176 6.58347
rclavicle 6.85807e-015 1.59028e-014
rhumerus -25.4378 -5.53288 -63.0989
rradius 87.2389
rwrist -19.8931
rhand -18.5823 20.8409
rfingers 7.12502
rthumb 7.7083 -8.99858
lclavicle 6.85807e-015 1.59028e-014
lhumerus -57.0659 29.2297 25.1073
lradius 30.0262
lwrist 4.74908
lhand -10.4305 36.2491
lfingers 7.12502
lthumb 15.5691 65.6425
rfemur -25.5549 3.51213 5.10838
rtibia 37.701
rfoot -10.372 -5.53491
rtoes 19.0372
lfemur -9.92318 -4.78994 -18.5862
ltibia 33.0658
lfoot -21.8933 -0.685012
ltoes -7.90129
